<svg fill="#818181" id="Capa_1" enable-background="new 0 0 512 512" height="512" viewBox="0 0 512 512" width="512" xmlns="http://www.w3.org/2000/svg"><path d="m405.318 512-21.148-21.28c63.087-62.701 97.83-146.06 97.83-234.72s-34.743-172.019-97.83-234.719l21.148-21.281c34.762 34.55 61.68 74.843 80.006 119.76 17.7 43.383 26.676 89.221 26.676 136.24s-8.976 92.857-26.676 136.241c-18.326 44.916-45.244 85.209-80.006 119.759z"/><path d="m359.556 425.957-21.148-21.28c39.962-39.717 61.971-92.518 61.971-148.676s-22.009-108.958-61.971-148.676l21.148-21.28c45.67 45.392 70.822 105.75 70.822 169.956s-25.152 124.563-70.822 169.956z"/><path d="m308.574 352.438-21.148-21.28c20.204-20.08 31.331-46.771 31.331-75.157 0-28.387-11.127-55.078-31.331-75.158l21.148-21.28c25.912 25.755 40.183 60.003 40.183 96.438 0 36.434-14.271 70.682-40.183 96.437z"/><path d="m256 42.65-179.198 128h-76.802v170.67h76.813l179.187 128zm-196 268.67h-30v-110.67h30zm166 99.7-136-97.142v-115.788l136-97.15z"/></svg>
